<?xml version="1.0" encoding="UTF-8" standalone="no"?>
<!DOCTYPE svg PUBLIC "-//W3C//DTD SVG 1.1//EN"
 "http://www.w3.org/Graphics/SVG/1.1/DTD/svg11.dtd">
<!-- Generated by graphviz version 12.2.1 (20241206.2353)
 -->
<!-- Title: FSM Pages: 1 -->
<svg width="351pt" height="398pt"
 viewBox="0.00 0.00 351.42 398.40" xmlns="http://www.w3.org/2000/svg" xmlns:xlink="http://www.w3.org/1999/xlink">
<g id="graph0" class="graph" transform="scale(1 1) rotate(0) translate(4 394.4)">
<title>FSM</title>
<polygon fill="white" stroke="none" points="-4,4 -4,-394.4 347.42,-394.4 347.42,4 -4,4"/>
<!-- Idle -->
<g id="node1" class="node">
<title>Idle</title>
<ellipse fill="none" stroke="black" cx="155.86" cy="-361.15" rx="25.25" ry="25.25"/>
<ellipse fill="none" stroke="black" cx="155.86" cy="-361.15" rx="29.25" ry="29.25"/>
<text text-anchor="middle" x="155.86" y="-356.1" font-family="Times,serif" font-size="14.00">Idle</text>
</g>
<!-- MovingUp -->
<g id="node2" class="node">
<title>MovingUp</title>
<ellipse fill="none" stroke="black" cx="51.86" cy="-216.28" rx="51.86" ry="51.86"/>
<text text-anchor="middle" x="51.86" y="-211.23" font-family="Times,serif" font-size="14.00">MovingUp</text>
</g>
<!-- Idle&#45;&gt;MovingUp -->
<g id="edge1" class="edge">
<title>Idle&#45;&gt;MovingUp</title>
<path fill="none" stroke="black" d="M126.76,-355.8C102.43,-350.46 69.18,-338.83 52.86,-313.9 46.11,-303.58 43.15,-291.23 42.37,-278.85"/>
<polygon fill="black" stroke="black" points="45.87,-279 42.23,-269.05 38.87,-279.1 45.87,-279"/>
<text text-anchor="middle" x="69.36" y="-300.6" font-family="Times,serif" font-size="14.00">GoUp</text>
</g>
<!-- MovingDown -->
<g id="node3" class="node">
<title>MovingDown</title>
<ellipse fill="none" stroke="black" cx="184.86" cy="-216.28" rx="63.12" ry="63.12"/>
<text text-anchor="middle" x="184.86" y="-211.23" font-family="Times,serif" font-size="14.00">MovingDown</text>
</g>
<!-- Idle&#45;&gt;MovingDown -->
<g id="edge2" class="edge">
<title>Idle&#45;&gt;MovingDown</title>
<path fill="none" stroke="black" d="M154.71,-331.54C154.75,-320.77 155.38,-308.45 157.36,-297.4 158,-293.85 158.76,-290.25 159.63,-286.64"/>
<polygon fill="black" stroke="black" points="162.93,-287.83 162.11,-277.27 156.17,-286.04 162.93,-287.83"/>
<text text-anchor="middle" x="182.11" y="-300.6" font-family="Times,serif" font-size="14.00">GoDown</text>
</g>
<!-- PickUp -->
<g id="node5" class="node">
<title>PickUp</title>
<ellipse fill="none" stroke="black" cx="304.86" cy="-216.28" rx="38.56" ry="18"/>
<text text-anchor="middle" x="304.86" y="-211.23" font-family="Times,serif" font-size="14.00">PickUp</text>
</g>
<!-- Idle&#45;&gt;PickUp -->
<g id="edge7" class="edge">
<title>Idle&#45;&gt;PickUp</title>
<path fill="none" stroke="black" stroke-dasharray="1,5" d="M182.92,-349.27C200.5,-341.28 223.16,-329.18 239.86,-313.9 261.71,-293.91 279.84,-265.17 291.35,-244.23"/>
<polygon fill="black" stroke="black" points="294.43,-245.89 296.04,-235.42 288.25,-242.6 294.43,-245.89"/>
</g>
<!-- MovingUp&#45;&gt;Idle -->
<g id="edge3" class="edge">
<title>MovingUp&#45;&gt;Idle</title>
<path fill="none" stroke="black" d="M82.03,-258.72C98.01,-280.67 117.35,-307.24 132.22,-327.67"/>
<polygon fill="black" stroke="black" points="129.32,-329.63 138.03,-335.65 134.98,-325.51 129.32,-329.63"/>
<text text-anchor="middle" x="131.63" y="-300.6" font-family="Times,serif" font-size="14.00">Stop</text>
</g>
<!-- MovingDown&#45;&gt;Idle -->
<g id="edge4" class="edge">
<title>MovingDown&#45;&gt;Idle</title>
<path fill="none" stroke="black" d="M209.87,-274.66C212.38,-287.87 212.3,-301.63 206.86,-313.9 202.9,-322.86 196.24,-330.82 189.03,-337.5"/>
<polygon fill="black" stroke="black" points="186.98,-334.65 181.59,-343.77 191.49,-340 186.98,-334.65"/>
<text text-anchor="middle" x="223.34" y="-300.6" font-family="Times,serif" font-size="14.00">Stop</text>
</g>
<!-- PickingUp -->
<g id="node4" class="node">
<title>PickingUp</title>
<ellipse fill="none" stroke="black" cx="184.86" cy="-50.33" rx="50.33" ry="50.33"/>
<text text-anchor="middle" x="184.86" y="-45.28" font-family="Times,serif" font-size="14.00">PickingUp</text>
</g>
<!-- MovingDown&#45;&gt;PickingUp -->
<g id="edge5" class="edge">
<title>MovingDown&#45;&gt;PickingUp</title>
<path fill="none" stroke="black" d="M156.86,-159.3C153.15,-146.09 151.49,-131.98 154.36,-118.66 155.28,-114.4 156.49,-110.1 157.9,-105.82"/>
<polygon fill="black" stroke="black" points="161.07,-107.34 161.23,-96.74 154.5,-104.92 161.07,-107.34"/>
<text text-anchor="middle" x="174.61" y="-121.86" font-family="Times,serif" font-size="14.00">PickUp</text>
</g>
<!-- PickingUp&#45;&gt;MovingDown -->
<g id="edge6" class="edge">
<title>PickingUp&#45;&gt;MovingDown</title>
<path fill="none" stroke="black" d="M192.98,-100.14C193.76,-106.36 194.42,-112.65 194.86,-118.66 195.42,-126.23 195.48,-134.12 195.18,-142"/>
<polygon fill="black" stroke="black" points="191.69,-141.78 194.61,-151.96 198.68,-142.18 191.69,-141.78"/>
<text text-anchor="middle" x="209.98" y="-121.86" font-family="Times,serif" font-size="14.00">Done</text>
</g>
</g>
</svg>
